<mxfile host="app.diagrams.net" modified="2024-03-24T08:12:12.869Z" agent="Mozilla/5.0 (X11; Linux x86_64) AppleWebKit/537.36 (KHTML, like Gecko) Chrome/121.0.0.0 Safari/537.36" etag="zGLkiCwdFboPF3IWxai_" version="24.1.0" type="google">
  <diagram name="PÃ¡gina-1" id="-017LzAuTkz5aM4laz43">
    <mxGraphModel grid="1" page="1" gridSize="10" guides="1" tooltips="1" connect="1" arrows="1" fold="1" pageScale="1" pageWidth="827" pageHeight="1169" math="0" shadow="0">
      <root>
        <mxCell id="0" />
        <mxCell id="1" parent="0" />
        <mxCell id="W5yv1yaFFtJT9tsTJUWO-1" value="Hotel" style="rounded=0;whiteSpace=wrap;html=1;" vertex="1" parent="1">
          <mxGeometry x="340" width="140" height="40" as="geometry" />
        </mxCell>
        <mxCell id="W5yv1yaFFtJT9tsTJUWO-2" value="+Arraylist available &amp;lt;&amp;gt;;&lt;br&gt;+Arraylist unAvaible &amp;lt;&amp;gt;;&lt;br&gt;+Arraylist users&amp;lt;&amp;gt;;&lt;div&gt;&lt;br&gt;&lt;/div&gt;" style="rounded=0;whiteSpace=wrap;html=1;align=left;" vertex="1" parent="1">
          <mxGeometry x="340" y="40" width="140" height="120" as="geometry" />
        </mxCell>
        <mxCell id="W5yv1yaFFtJT9tsTJUWO-3" value="Room" style="rounded=0;whiteSpace=wrap;html=1;" vertex="1" parent="1">
          <mxGeometry x="640" y="120" width="120" height="40" as="geometry" />
        </mxCell>
        <mxCell id="W5yv1yaFFtJT9tsTJUWO-12" value="" style="edgeStyle=orthogonalEdgeStyle;rounded=0;orthogonalLoop=1;jettySize=auto;html=1;" edge="1" parent="1" source="W5yv1yaFFtJT9tsTJUWO-4" target="W5yv1yaFFtJT9tsTJUWO-11">
          <mxGeometry relative="1" as="geometry" />
        </mxCell>
        <mxCell id="W5yv1yaFFtJT9tsTJUWO-4" value="+double : price&lt;br&gt;+Int : capacity&lt;br&gt;+int : id&lt;br&gt;+boleann : avaylable&lt;br&gt;+user : user&lt;br&gt;+Date&amp;nbsp; :&amp;nbsp; date start&amp;nbsp;&lt;br&gt;+date : date finish" style="rounded=0;whiteSpace=wrap;html=1;align=left;verticalAlign=top;" vertex="1" parent="1">
          <mxGeometry x="640" y="160" width="120" height="110" as="geometry" />
        </mxCell>
        <mxCell id="W5yv1yaFFtJT9tsTJUWO-5" value="User" style="rounded=0;whiteSpace=wrap;html=1;" vertex="1" parent="1">
          <mxGeometry x="360.26" y="259.65999999999997" width="120" height="40" as="geometry" />
        </mxCell>
        <mxCell id="W5yv1yaFFtJT9tsTJUWO-6" value="+String : name&lt;br&gt;+int&amp;nbsp; : phone&lt;br&gt;+int : id&lt;br&gt;+String : role&lt;br&gt;+double : stay&lt;br&gt;+int : time" style="rounded=0;whiteSpace=wrap;html=1;align=left;verticalAlign=top;" vertex="1" parent="1">
          <mxGeometry x="360.26" y="299.65999999999997" width="120" height="100" as="geometry" />
        </mxCell>
        <mxCell id="W5yv1yaFFtJT9tsTJUWO-7" value="Receptionisp" style="rounded=0;whiteSpace=wrap;html=1;" vertex="1" parent="1">
          <mxGeometry x="150" y="160" width="120" height="40" as="geometry" />
        </mxCell>
        <mxCell id="W5yv1yaFFtJT9tsTJUWO-9" value="+make user();" style="rounded=0;whiteSpace=wrap;html=1;align=left;verticalAlign=top;" vertex="1" parent="1">
          <mxGeometry x="150" y="200" width="120" height="30" as="geometry" />
        </mxCell>
        <mxCell id="W5yv1yaFFtJT9tsTJUWO-11" value="+allocateRoom();" style="whiteSpace=wrap;html=1;align=left;verticalAlign=top;rounded=0;" vertex="1" parent="1">
          <mxGeometry x="640" y="270" width="120" height="40" as="geometry" />
        </mxCell>
        <mxCell id="5GExZM_6eJ_V2kW-nuIk-9" value="1" style="text;html=1;align=center;verticalAlign=middle;resizable=0;points=[];autosize=1;strokeColor=none;fillColor=none;" vertex="1" parent="1">
          <mxGeometry x="475" y="90" width="30" height="30" as="geometry" />
        </mxCell>
        <mxCell id="5GExZM_6eJ_V2kW-nuIk-12" value="" style="endArrow=none;html=1;rounded=0;entryX=1;entryY=0.5;entryDx=0;entryDy=0;exitX=0;exitY=0.75;exitDx=0;exitDy=0;" edge="1" parent="1" source="W5yv1yaFFtJT9tsTJUWO-4" target="5GExZM_6eJ_V2kW-nuIk-14">
          <mxGeometry width="50" height="50" relative="1" as="geometry">
            <mxPoint x="480" y="320" as="sourcePoint" />
            <mxPoint x="610" y="260" as="targetPoint" />
          </mxGeometry>
        </mxCell>
        <mxCell id="5GExZM_6eJ_V2kW-nuIk-14" value="" style="rhombus;whiteSpace=wrap;html=1;rotation=-183;" vertex="1" parent="1">
          <mxGeometry x="480.52" y="299.89" width="24.48" height="20.11" as="geometry" />
        </mxCell>
        <mxCell id="5GExZM_6eJ_V2kW-nuIk-16" value="1" style="text;html=1;align=center;verticalAlign=middle;resizable=0;points=[];autosize=1;strokeColor=none;fillColor=none;" vertex="1" parent="1">
          <mxGeometry x="490" y="320" width="30" height="30" as="geometry" />
        </mxCell>
        <mxCell id="5GExZM_6eJ_V2kW-nuIk-30" value="" style="rhombus;whiteSpace=wrap;html=1;rotation=-183;fillColor=#000000;" vertex="1" parent="1">
          <mxGeometry x="480.26" y="70" width="19.49" height="20" as="geometry" />
        </mxCell>
        <mxCell id="5GExZM_6eJ_V2kW-nuIk-32" value="" style="edgeStyle=segmentEdgeStyle;endArrow=classic;html=1;curved=0;rounded=0;endSize=8;startSize=8;sourcePerimeterSpacing=0;targetPerimeterSpacing=0;entryX=-0.025;entryY=0.127;entryDx=0;entryDy=0;entryPerimeter=0;exitX=0;exitY=0;exitDx=0;exitDy=0;" edge="1" parent="1" source="5GExZM_6eJ_V2kW-nuIk-30">
          <mxGeometry width="100" relative="1" as="geometry">
            <mxPoint x="508" y="82.5" as="sourcePoint" />
            <mxPoint x="640" y="171.47000000000003" as="targetPoint" />
            <Array as="points">
              <mxPoint x="495" y="83" />
              <mxPoint x="558" y="83" />
              <mxPoint x="558" y="178" />
              <mxPoint x="640" y="178" />
            </Array>
          </mxGeometry>
        </mxCell>
        <mxCell id="5GExZM_6eJ_V2kW-nuIk-34" value="" style="endArrow=none;html=1;rounded=0;exitX=0.575;exitY=0.075;exitDx=0;exitDy=0;exitPerimeter=0;" edge="1" parent="1" source="W5yv1yaFFtJT9tsTJUWO-5">
          <mxGeometry width="50" height="50" relative="1" as="geometry">
            <mxPoint x="430" y="210" as="sourcePoint" />
            <mxPoint x="430" y="180" as="targetPoint" />
          </mxGeometry>
        </mxCell>
        <mxCell id="5GExZM_6eJ_V2kW-nuIk-36" value="" style="rhombus;whiteSpace=wrap;html=1;rotation=-183;" vertex="1" parent="1">
          <mxGeometry x="419.9996549099752" y="159.9996549099752" width="20" height="20" as="geometry" />
        </mxCell>
        <mxCell id="5GExZM_6eJ_V2kW-nuIk-37" value="0..*" style="text;html=1;align=center;verticalAlign=middle;resizable=0;points=[];autosize=1;strokeColor=none;fillColor=none;" vertex="1" parent="1">
          <mxGeometry x="430" y="229.66" width="40" height="30" as="geometry" />
        </mxCell>
        <mxCell id="5GExZM_6eJ_V2kW-nuIk-38" value="1" style="text;strokeColor=none;fillColor=none;align=left;verticalAlign=middle;spacingLeft=4;spacingRight=4;overflow=hidden;points=[[0,0.5],[1,0.5]];portConstraint=eastwest;rotatable=0;whiteSpace=wrap;html=1;" vertex="1" parent="1">
          <mxGeometry x="440" y="155" width="80" height="30" as="geometry" />
        </mxCell>
        <mxCell id="Ov__L4e5Zq2CLh-jDpEw-4" value="0..*" style="text;html=1;align=center;verticalAlign=middle;resizable=0;points=[];autosize=1;strokeColor=none;fillColor=none;" vertex="1" parent="1">
          <mxGeometry x="605" y="178" width="40" height="30" as="geometry" />
        </mxCell>
        <mxCell id="Ov__L4e5Zq2CLh-jDpEw-5" value="0..*" style="text;html=1;align=center;verticalAlign=middle;resizable=0;points=[];autosize=1;strokeColor=none;fillColor=none;" vertex="1" parent="1">
          <mxGeometry x="605" y="249.55" width="40" height="30" as="geometry" />
        </mxCell>
        <mxCell id="ecPIZqmot0g9jMrNO8Iz-3" value="" style="edgeStyle=none;orthogonalLoop=1;jettySize=auto;html=1;rounded=0;exitX=0.317;exitY=0;exitDx=0;exitDy=0;exitPerimeter=0;" edge="1" parent="1" source="W5yv1yaFFtJT9tsTJUWO-7">
          <mxGeometry width="100" relative="1" as="geometry">
            <mxPoint x="130" y="70" as="sourcePoint" />
            <mxPoint x="330" y="70" as="targetPoint" />
            <Array as="points" />
          </mxGeometry>
        </mxCell>
      </root>
    </mxGraphModel>
  </diagram>
</mxfile>
